<svg id="visual" viewBox="0 0 540 960" width="540" height="960" xmlns="http://www.w3.org/2000/svg" xmlns:xlink="http://www.w3.org/1999/xlink" version="1.1"><rect x="0" y="0" width="540" height="960" fill="#f2f5c8"></rect><defs><linearGradient id="grad1_0" x1="0%" y1="100%" x2="100%" y2="0%"><stop offset="30%" stop-color="#e8e8a6" stop-opacity="1"></stop><stop offset="70%" stop-color="#e8e8a6" stop-opacity="1"></stop></linearGradient></defs><defs><linearGradient id="grad1_1" x1="0%" y1="100%" x2="100%" y2="0%"><stop offset="30%" stop-color="#e8e8a6" stop-opacity="1"></stop><stop offset="70%" stop-color="#edefb7" stop-opacity="1"></stop></linearGradient></defs><defs><linearGradient id="grad1_2" x1="0%" y1="100%" x2="100%" y2="0%"><stop offset="30%" stop-color="#f2f5c8" stop-opacity="1"></stop><stop offset="70%" stop-color="#edefb7" stop-opacity="1"></stop></linearGradient></defs><defs><linearGradient id="grad2_0" x1="0%" y1="100%" x2="100%" y2="0%"><stop offset="30%" stop-color="#e8e8a6" stop-opacity="1"></stop><stop offset="70%" stop-color="#e8e8a6" stop-opacity="1"></stop></linearGradient></defs><defs><linearGradient id="grad2_1" x1="0%" y1="100%" x2="100%" y2="0%"><stop offset="30%" stop-color="#edefb7" stop-opacity="1"></stop><stop offset="70%" stop-color="#e8e8a6" stop-opacity="1"></stop></linearGradient></defs><defs><linearGradient id="grad2_2" x1="0%" y1="100%" x2="100%" y2="0%"><stop offset="30%" stop-color="#edefb7" stop-opacity="1"></stop><stop offset="70%" stop-color="#f2f5c8" stop-opacity="1"></stop></linearGradient></defs><g transform="translate(540, 960)"><path d="M-349 0C-373.8 -48.5 -398.6 -96.9 -405.6 -168C-412.6 -239 -401.9 -332.7 -343.7 -343.7C-285.4 -354.6 -179.6 -283 -114.4 -276.2C-49.2 -269.5 -24.6 -327.8 0 -386L0 0Z" fill="#eff2c0"></path><path d="M-232.7 0C-249.2 -32.3 -265.7 -64.6 -270.4 -112C-275.1 -159.4 -267.9 -221.8 -229.1 -229.1C-190.3 -236.4 -119.7 -188.6 -76.3 -184.2C-32.8 -179.7 -16.4 -218.5 0 -257.3L0 0Z" fill="#eaebaf"></path><path d="M-116.3 0C-124.6 -16.2 -132.9 -32.3 -135.2 -56C-137.5 -79.7 -134 -110.9 -114.6 -114.6C-95.1 -118.2 -59.9 -94.3 -38.1 -92.1C-16.4 -89.8 -8.2 -109.3 0 -128.7L0 0Z" fill="#e8e8a6"></path></g><g transform="translate(0, 0)"><path d="M486 0C484.3 70.1 482.5 140.2 442.5 183.3C402.6 226.4 324.3 242.5 270.1 270.1C215.9 297.8 185.7 337 144.7 349.2C103.6 361.5 51.8 346.7 0 332L0 0Z" fill="#eff2c0"></path><path d="M324 0C322.8 46.7 321.7 93.5 295 122.2C268.4 150.9 216.2 161.6 180.1 180.1C143.9 198.5 123.8 224.7 96.4 232.8C69.1 241 34.5 231.2 0 221.3L0 0Z" fill="#eaebaf"></path><path d="M162 0C161.4 23.4 160.8 46.7 147.5 61.1C134.2 75.5 108.1 80.8 90 90C72 99.3 61.9 112.3 48.2 116.4C34.5 120.5 17.3 115.6 0 110.7L0 0Z" fill="#e8e8a6"></path></g></svg>