<svg id="visual" viewBox="0 0 540 960" width="540" height="960" xmlns="http://www.w3.org/2000/svg" xmlns:xlink="http://www.w3.org/1999/xlink" version="1.1"><path d="M0 695L12.8 692.7C25.7 690.3 51.3 685.7 77 671.2C102.7 656.7 128.3 632.3 154 626.2C179.7 620 205.3 632 231.2 640.8C257 649.7 283 655.3 308.8 662C334.7 668.7 360.3 676.3 386 685.7C411.7 695 437.3 706 463 692.2C488.7 678.3 514.3 639.7 527.2 620.3L540 601L540 961L527.2 961C514.3 961 488.7 961 463 961C437.3 961 411.7 961 386 961C360.3 961 334.7 961 308.8 961C283 961 257 961 231.2 961C205.3 961 179.7 961 154 961C128.3 961 102.7 961 77 961C51.3 961 25.7 961 12.8 961L0 961Z" fill="#f2f5c8"></path><path d="M0 693L12.8 683C25.7 673 51.3 653 77 664.3C102.7 675.7 128.3 718.3 154 723.2C179.7 728 205.3 695 231.2 679.7C257 664.3 283 666.7 308.8 668.5C334.7 670.3 360.3 671.7 386 687C411.7 702.3 437.3 731.7 463 730.3C488.7 729 514.3 697 527.2 681L540 665L540 961L527.2 961C514.3 961 488.7 961 463 961C437.3 961 411.7 961 386 961C360.3 961 334.7 961 308.8 961C283 961 257 961 231.2 961C205.3 961 179.7 961 154 961C128.3 961 102.7 961 77 961C51.3 961 25.7 961 12.8 961L0 961Z" fill="#c6e0b2"></path><path d="M0 812L12.8 799.8C25.7 787.7 51.3 763.3 77 755.7C102.7 748 128.3 757 154 758.8C179.7 760.7 205.3 755.3 231.2 751.3C257 747.3 283 744.7 308.8 745.3C334.7 746 360.3 750 386 759.7C411.7 769.3 437.3 784.7 463 794.7C488.7 804.7 514.3 809.3 527.2 811.7L540 814L540 961L527.2 961C514.3 961 488.7 961 463 961C437.3 961 411.7 961 386 961C360.3 961 334.7 961 308.8 961C283 961 257 961 231.2 961C205.3 961 179.7 961 154 961C128.3 961 102.7 961 77 961C51.3 961 25.7 961 12.8 961L0 961Z" fill="#98cba2"></path><path d="M0 852L12.8 843.8C25.7 835.7 51.3 819.3 77 815.2C102.7 811 128.3 819 154 827C179.7 835 205.3 843 231.2 844.5C257 846 283 841 308.8 840.8C334.7 840.7 360.3 845.3 386 842.2C411.7 839 437.3 828 463 819.5C488.7 811 514.3 805 527.2 802L540 799L540 961L527.2 961C514.3 961 488.7 961 463 961C437.3 961 411.7 961 386 961C360.3 961 334.7 961 308.8 961C283 961 257 961 231.2 961C205.3 961 179.7 961 154 961C128.3 961 102.7 961 77 961C51.3 961 25.7 961 12.8 961L0 961Z" fill="#66b599"></path><path d="M0 917L12.8 917C25.7 917 51.3 917 77 907C102.7 897 128.3 877 154 865.2C179.7 853.3 205.3 849.7 231.2 860C257 870.3 283 894.7 308.8 902C334.7 909.3 360.3 899.7 386 892.3C411.7 885 437.3 880 463 882.7C488.7 885.3 514.3 895.7 527.2 900.8L540 906L540 961L527.2 961C514.3 961 488.7 961 463 961C437.3 961 411.7 961 386 961C360.3 961 334.7 961 308.8 961C283 961 257 961 231.2 961C205.3 961 179.7 961 154 961C128.3 961 102.7 961 77 961C51.3 961 25.7 961 12.8 961L0 961Z" fill="#219f94"></path></svg>