<svg id="visual" viewBox="0 0 540 960" width="540" height="960" xmlns="http://www.w3.org/2000/svg" xmlns:xlink="http://www.w3.org/1999/xlink" version="1.1"><path d="M0 176L15 173.7C30 171.3 60 166.7 90 160C120 153.3 150 144.7 180 143C210 141.3 240 146.7 270 151.8C300 157 330 162 360 161C390 160 420 153 450 162C480 171 510 196 525 208.5L540 221L540 0L525 0C510 0 480 0 450 0C420 0 390 0 360 0C330 0 300 0 270 0C240 0 210 0 180 0C150 0 120 0 90 0C60 0 30 0 15 0L0 0Z" fill="#f2f5c8"></path><path d="M0 143L15 144C30 145 60 147 90 145C120 143 150 137 180 129.2C210 121.3 240 111.7 270 111.7C300 111.7 330 121.3 360 130.3C390 139.3 420 147.7 450 152.8C480 158 510 160 525 161L540 162L540 0L525 0C510 0 480 0 450 0C420 0 390 0 360 0C330 0 300 0 270 0C240 0 210 0 180 0C150 0 120 0 90 0C60 0 30 0 15 0L0 0Z" fill="#98cba2"></path><path d="M0 80L15 83.3C30 86.7 60 93.3 90 93.2C120 93 150 86 180 83.5C210 81 240 83 270 80.7C300 78.3 330 71.7 360 66.8C390 62 420 59 450 58.5C480 58 510 60 525 61L540 62L540 0L525 0C510 0 480 0 450 0C420 0 390 0 360 0C330 0 300 0 270 0C240 0 210 0 180 0C150 0 120 0 90 0C60 0 30 0 15 0L0 0Z" fill="#219f94"></path></svg>