<svg id="visual" viewBox="0 0 540 960" width="540" height="960" xmlns="http://www.w3.org/2000/svg" xmlns:xlink="http://www.w3.org/1999/xlink" version="1.1"><path d="M0 208L12.8 203C25.7 198 51.3 188 77 188.5C102.7 189 128.3 200 154 199.2C179.7 198.3 205.3 185.7 231.2 179.8C257 174 283 175 308.8 182C334.7 189 360.3 202 386 201.7C411.7 201.3 437.3 187.7 463 185C488.7 182.3 514.3 190.7 527.2 194.8L540 199L540 0L527.2 0C514.3 0 488.7 0 463 0C437.3 0 411.7 0 386 0C360.3 0 334.7 0 308.8 0C283 0 257 0 231.2 0C205.3 0 179.7 0 154 0C128.3 0 102.7 0 77 0C51.3 0 25.7 0 12.8 0L0 0Z" fill="#f2f5c8"></path><path d="M0 142L12.8 143C25.7 144 51.3 146 77 145C102.7 144 128.3 140 154 137.2C179.7 134.3 205.3 132.7 231.2 140C257 147.3 283 163.7 308.8 171C334.7 178.3 360.3 176.7 386 171.5C411.7 166.3 437.3 157.7 463 150.7C488.7 143.7 514.3 138.3 527.2 135.7L540 133L540 0L527.2 0C514.3 0 488.7 0 463 0C437.3 0 411.7 0 386 0C360.3 0 334.7 0 308.8 0C283 0 257 0 231.2 0C205.3 0 179.7 0 154 0C128.3 0 102.7 0 77 0C51.3 0 25.7 0 12.8 0L0 0Z" fill="#ecedb3"></path><path d="M0 135L12.8 135.2C25.7 135.3 51.3 135.7 77 135C102.7 134.3 128.3 132.7 154 129.2C179.7 125.7 205.3 120.3 231.2 118C257 115.7 283 116.3 308.8 119.2C334.7 122 360.3 127 386 130.7C411.7 134.3 437.3 136.7 463 135.5C488.7 134.3 514.3 129.7 527.2 127.3L540 125L540 0L527.2 0C514.3 0 488.7 0 463 0C437.3 0 411.7 0 386 0C360.3 0 334.7 0 308.8 0C283 0 257 0 231.2 0C205.3 0 179.7 0 154 0C128.3 0 102.7 0 77 0C51.3 0 25.7 0 12.8 0L0 0Z" fill="#e8e8a6"></path><path d="M0 86L12.8 84.2C25.7 82.3 51.3 78.7 77 77.7C102.7 76.7 128.3 78.3 154 81.5C179.7 84.7 205.3 89.3 231.2 91.5C257 93.7 283 93.3 308.8 92.2C334.7 91 360.3 89 386 89.3C411.7 89.7 437.3 92.3 463 92.7C488.7 93 514.3 91 527.2 90L540 89L540 0L527.2 0C514.3 0 488.7 0 463 0C437.3 0 411.7 0 386 0C360.3 0 334.7 0 308.8 0C283 0 257 0 231.2 0C205.3 0 179.7 0 154 0C128.3 0 102.7 0 77 0C51.3 0 25.7 0 12.8 0L0 0Z" fill="#ecedb3"></path><path d="M0 42L12.8 42.5C25.7 43 51.3 44 77 45.7C102.7 47.3 128.3 49.7 154 50.7C179.7 51.7 205.3 51.3 231.2 51.8C257 52.3 283 53.7 308.8 51.5C334.7 49.3 360.3 43.7 386 44.3C411.7 45 437.3 52 463 52.8C488.7 53.7 514.3 48.3 527.2 45.7L540 43L540 0L527.2 0C514.3 0 488.7 0 463 0C437.3 0 411.7 0 386 0C360.3 0 334.7 0 308.8 0C283 0 257 0 231.2 0C205.3 0 179.7 0 154 0C128.3 0 102.7 0 77 0C51.3 0 25.7 0 12.8 0L0 0Z" fill="#f2f5c8"></path></svg>