<svg xmlns="http://www.w3.org/2000/svg" viewBox="0 0 250 250">
  <g transform="matrix(1.25,0,0,1.25,0,0)">
    <defs>
      <style>
        .a {
          fill: #4E9F3D;
        }

        .b {
          fill: #f9cfa6;
        }

        .c {
          fill: #313553;
        }

        .d,
        .e,
        .f,
        .g {
          fill: none;
          stroke-linecap: round;
          stroke-linejoin: round;
        }

        .d,
        .f {
          stroke: #313553;
        }

        .d,
        .e,
        .f {
          stroke-width: 0.702px;
        }

        .e,
        .g {
          stroke: #ffffff;
        }

        .f {
          stroke-dasharray: 4.212;
        }

        .g {
          stroke-width: 1.755px;
        }

        .h {
          fill: #ffffff;
        }
      </style>
    </defs>
    <path class="a"
      d="M175.568,77.3a1.267,1.267,0,0,1-1.376,2.127l-12.975-8.4a8.016,8.016,0,1,1,1.376-2.123Zm-15.52-8.539a5.707,5.707,0,1,0-7.893,1.688A5.708,5.708,0,0,0,160.048,68.759Z">
    </path>
    <path class="a" d="M183.384,136.106v.147a1.185,1.185,0,0,1-2.369,0v-.147a1.185,1.185,0,0,1,2.369,0Z"></path>
    <path class="a" d="M183.384,126.981v5.412a1.185,1.185,0,0,1-2.369,0v-5.412a1.185,1.185,0,0,1,2.369,0Z"></path>
    <path class="a"
      d="M39.266,67.46a7.027,7.027,0,0,0,10.726-5.973V59.616a3.974,3.974,0,0,0-3.973-3.973h-.183V54.6A2.323,2.323,0,0,0,45,52.744a3.143,3.143,0,0,0-2.032-.667,2.592,2.592,0,0,0-2.871,2.52v1.046h-.182a3.973,3.973,0,0,0-3.973,3.973v1.871A7.019,7.019,0,0,0,39.266,67.46Zm3.6-23.08A15.78,15.78,0,1,1,27.088,60.16,15.78,15.78,0,0,1,42.867,44.38Z">
    </path>
    <path class="b"
      d="M190.867,134.649a2.953,2.953,0,0,1-2.559,4.43H175.8a2.953,2.953,0,0,1-2.555-4.43l6.254-10.83a2.952,2.952,0,0,1,5.114,0Zm-7.483,1.6v-.147a1.185,1.185,0,0,0-2.369,0v.147a1.185,1.185,0,0,0,2.369,0Zm0-3.86v-5.412a1.185,1.185,0,0,0-2.369,0v5.412a1.185,1.185,0,0,0,2.369,0Z">
    </path>
    <circle class="c" cx="180.517" cy="98.419" r="5.587"></circle>
    <rect class="c" x="166.738" y="118.698" width="2.66" height="24.533"></rect>
    <path class="c"
      d="M147.982,176.59a55.791,55.791,0,0,1-9.322-.228v-.007a2.143,2.143,0,0,0-2.144-2.141h-1.65a3.794,3.794,0,0,0,3.794-3.794V160.3S141.3,175.151,147.982,176.59Z">
    </path>
    <rect class="c" x="138.66" y="53.418" width="2.66" height="31.201"></rect>
    <path class="a"
      d="M59.026,127.16v-6.3a3.794,3.794,0,0,1,3.794-3.794h72.046a3.794,3.794,0,0,1,3.794,3.794V170.42a3.794,3.794,0,0,1-3.794,3.794H62.82a3.794,3.794,0,0,1-3.794-3.794V127.16Zm49.054,18.478a9.237,9.237,0,1,0-9.237,9.238A9.238,9.238,0,0,0,108.08,145.638Z">
    </path>
    <path class="a"
      d="M138.66,176.362a2.144,2.144,0,0,1-2.144,2.137H61.17a2.143,2.143,0,1,1,0-4.285h75.346a2.143,2.143,0,0,1,2.144,2.141Z">
    </path>
    <path class="b"
      d="M111.52,90.378h0a13.767,13.767,0,0,1-1.492,2.847v0a39.628,39.628,0,0,1-4.752,5.524,11.67,11.67,0,0,1-4,2.766,8.442,8.442,0,0,1-6.226-.095c-1.889-.688-3.98-3.264-4.756-5.11-.355-.842-1.176-2.583-2-4.51v0a42.934,42.934,0,0,1-1.871-5.012l0,0a10.6,10.6,0,0,1-.32-1.463,45.63,45.63,0,0,1,0-7.757c0-1.811,2.236-5.394,3.773-7.244,2.124-2.555,4.633.794,4.777.916l0,0c1.506,1.836,2.338,3.8,4.061,3.618,2.015-.214,5.475-4.766,8.357-4.32s5.043,2.881,5.331,6.339-1.081,5.187,0,5.836,2.229-3.173,3.959-3.962c0,0,1.281-.292,1.87,1.4s-2.179,6.4-3.829,8.342C112.805,90.364,111.608,90.378,111.52,90.378Z">
    </path>
    <path class="c"
      d="M94.642,71.236c-.144-.122-2.432-3.313-4.777-.916-1.681,1.72-3.773,5.433-3.773,7.244,0,0,.007-.294.018-.8.074-2.654-.393-8.508.189-10.54,1.39-4.843,8.448-10.648,14.738-10.648s13.5,4.2,15.351,11.669-.035,11.509-.035,11.509c-1.73.789-2.878,4.608-3.959,3.962s.288-3.081,0-6.538a5.814,5.814,0,0,0-5.331-5.637c-2.882-.446-6.342,4.106-8.357,4.32-1.723.187-2.555-1.782-4.061-3.618Z">
    </path>
    <path class="b"
      d="M88.086,94.313l.2-2.51c.828,1.927,1.649,3.668,2,4.51.776,1.846,2.867,4.422,4.756,5.11a8.442,8.442,0,0,0,6.226.095s7.546-1.569,8.756-3.45V95.362s1.98.621,4.928,1.621l-.046.218a21.844,21.844,0,0,1-19.226,9.038c-5.524-.376-12.161-5.918-12.968-10.024,3.113-1.172,5.226-1.913,5.226-1.913Z">
    </path>
    <path class="c"
      d="M110.028,95.362v2.706c-1.21,1.881-8.756,3.45-8.756,3.45a11.67,11.67,0,0,0,4-2.766,39.628,39.628,0,0,0,4.752-5.524Z">
    </path>
    <circle class="a" cx="98.843" cy="145.638" r="9.237"></circle>
    <path class="c" d="M92.747,19.862a5.916,5.916,0,1,1-5.918,5.917A5.915,5.915,0,0,1,92.747,19.862Z"></path>
    <path class="b"
      d="M86.092,85.321a10.6,10.6,0,0,0,.32,1.463c-1.134-.958-3.97-7.914-2.559-9.813s2.239-.21,2.239-.21h.018c-.011.509-.018.8-.018.8A45.63,45.63,0,0,0,86.092,85.321Z">
    </path>
    <path class="c"
      d="M62.82,174.214H61.17a2.144,2.144,0,0,0-2.144,2.141,57.463,57.463,0,0,1-8.392.291v-.007c5.847-.86,8.392-16.309,8.392-16.309v10.09A3.794,3.794,0,0,0,62.82,174.214Z">
    </path>
    <path class="b"
      d="M49.992,59.616v1.871a7.019,7.019,0,0,1-3.327,5.973c-2.376-.849-3.7-4.591-3.7-4.591V55.643h3.054A3.974,3.974,0,0,1,49.992,59.616Z">
    </path>
    <path class="b"
      d="M45.836,55.362v.281H40.094V54.6a2.592,2.592,0,0,1,2.871-2.52A3.143,3.143,0,0,1,45,52.744a2.323,2.323,0,0,1,.839,1.853Z">
    </path>
    <path class="b"
      d="M42.965,62.869s1.324,3.742,3.7,4.591a7.025,7.025,0,0,1-7.4,0C41.639,66.607,42.965,62.869,42.965,62.869Z">
    </path>
    <path class="b"
      d="M42.965,55.643v7.226s-1.326,3.738-3.7,4.591a7.019,7.019,0,0,1-3.327-5.973V59.616a3.973,3.973,0,0,1,3.973-3.973h3.053Z">
    </path>
    <path class="c" d="M22.522,97.215a5.01,5.01,0,1,1-5.009,5.008A5.009,5.009,0,0,1,22.522,97.215Z"></path>
    <rect class="c" x="14.849" y="39.014" width="2.664" height="41.727"></rect>
    <path class="d"
      d="M62.82,174.214a3.794,3.794,0,0,1-3.794-3.794V120.856a3.794,3.794,0,0,1,3.794-3.794h72.046a3.794,3.794,0,0,1,3.794,3.794V170.42a3.794,3.794,0,0,1-3.794,3.794">
    </path>
    <path class="d"
      d="M138.66,176.362a2.144,2.144,0,0,1-2.144,2.137H61.17a2.143,2.143,0,1,1,0-4.285h75.346a2.143,2.143,0,0,1,2.144,2.141Z">
    </path>
    <circle class="e" cx="98.843" cy="146.34" r="9.237"></circle>
    <polyline class="d" points="17.513 39.014 68.158 39.014 68.158 80.741 17.513 80.741"></polyline>
    <rect class="d" x="14.849" y="39.014" width="2.664" height="41.727"></rect>
    <polyline class="d" points="141.321 53.418 183.191 53.418 183.191 84.619 141.321 84.619"></polyline>
    <rect class="d" x="138.66" y="53.418" width="2.66" height="31.201"></rect>
    <polyline class="d" points="169.398 118.698 195.475 118.698 195.475 143.231 169.398 143.231"></polyline>
    <rect class="d" x="166.738" y="118.698" width="2.66" height="24.533"></rect>
    <path class="d" d="M98.66,25.779a5.916,5.916,0,1,1-5.913-5.917A5.911,5.911,0,0,1,98.66,25.779Z"></path>
    <path class="d" d="M27.533,102.223a5.01,5.01,0,1,1-5.011-5.008A5.009,5.009,0,0,1,27.533,102.223Z"></path>
    <circle class="d" cx="180.517" cy="98.419" r="5.587"></circle>
    <path class="d"
      d="M179.5,123.819l-6.254,10.83a2.953,2.953,0,0,0,2.555,4.43h12.508a2.953,2.953,0,0,0,2.559-4.43l-6.254-10.83A2.952,2.952,0,0,0,179.5,123.819Z">
    </path>
    <path class="d"
      d="M182.2,133.575a1.183,1.183,0,0,1-1.183-1.182v-5.412a1.185,1.185,0,0,1,2.369,0v5.412A1.184,1.184,0,0,1,182.2,133.575Z">
    </path>
    <path class="d"
      d="M182.2,137.436a1.183,1.183,0,0,1-1.183-1.183v-.147a1.185,1.185,0,0,1,2.369,0v.147A1.184,1.184,0,0,1,182.2,137.436Z">
    </path>
    <path class="d"
      d="M46.665,67.46a7.027,7.027,0,0,1-10.726-5.973V59.616a3.973,3.973,0,0,1,3.973-3.973h6.107a3.974,3.974,0,0,1,3.973,3.973v1.871A7.019,7.019,0,0,1,46.665,67.46Z">
    </path>
    <path class="d"
      d="M40.094,55.362V54.6a2.592,2.592,0,0,1,2.871-2.52A3.143,3.143,0,0,1,45,52.744a2.323,2.323,0,0,1,.839,1.853v.765">
    </path>
    <path class="d" d="M42.965,62.869s1.324,3.742,3.7,4.591"></path>
    <path class="d" d="M42.965,55.643v7.226s-1.326,3.738-3.7,4.591h0"></path>
    <path class="d" d="M43.888,52.077V50.824a1.279,1.279,0,0,1,1.278-1.281"></path>
    <path class="d" d="M42.007,52.077V50.824a1.278,1.278,0,0,0-1.277-1.281"></path>
    <path class="d" d="M36.357,57.552h-2.24a2.049,2.049,0,0,1-1.747-.972l-1.06-1.716"></path>
    <path class="d" d="M49.56,57.552H51.8a2.04,2.04,0,0,0,1.744-.972l1.06-1.716"></path>
    <path class="d" d="M48.858,65.744H51.1a2.042,2.042,0,0,1,1.744.976l1.06,1.712"></path>
    <path class="d" d="M37.059,65.744h-2.24a2.051,2.051,0,0,0-1.747.976l-1.06,1.712"></path>
    <line class="d" x1="50.262" y1="61.181" x2="53.558" y2="61.181"></line>
    <line class="d" x1="35.655" y1="61.181" x2="32.012" y2="61.181"></line>
    <circle class="d" cx="42.867" cy="60.16" r="15.78"></circle>
    <path class="d" d="M158.36,60.865a5.708,5.708,0,1,1-7.893,1.689A5.708,5.708,0,0,1,158.36,60.865Z"></path>
    <path class="d"
      d="M159.617,58.925a8.02,8.02,0,1,0,1.6,12.1l12.975,8.4a1.267,1.267,0,0,0,1.376-2.127l-12.975-8.4A8.024,8.024,0,0,0,159.617,58.925Z">
    </path>
    <path class="d"
      d="M87.942,94.3s-2.113.741-5.226,1.913c-7.683,2.888-21.451,8.413-24.589,11.943-3.6,4.054-8.058,11.466-12.2,19-5.318,9.676-10.1,19.549-11.825,22.735-3.067,5.662-7.314,21.438,1.657,24.319a55.727,55.727,0,0,0,14.874,2.432,57.463,57.463,0,0,0,8.392-.291">
    </path>
    <path class="d" d="M43.425,148.2c2.145,0,11.754-.042,15.6,3.043"></path>
    <path class="d" d="M47.889,144.234a16.142,16.142,0,0,1,2.745,4.166"></path>
    <path class="d" d="M147.982,176.59a55.791,55.791,0,0,1-9.322-.228.72.72,0,0,1-.08-.007"></path>
    <path class="d"
      d="M110.028,95.362s1.98.621,4.928,1.621c3.731,1.267,9.006,3.149,13.768,5.156,4.844,2.043,9.157,4.219,10.754,6.019,8.216,9.255,20.258,36.073,23.325,41.737s7.315,21.438-1.656,24.319a53.442,53.442,0,0,1-13.161,2.376">
    </path>
    <path class="d" d="M154.184,148.2c-2.148,0-11.407-.309-15.253,2.776"></path>
    <path class="d" d="M149.719,144.234a16.041,16.041,0,0,0-2.744,4.166"></path>
    <polyline class="f" points="42.836 85.321 42.836 127.16 45.928 127.16 59.026 127.16 75.311 127.16"></polyline>
    <line class="f" x1="22.522" y1="83.668" x2="22.522" y2="94.393"></line>
    <polyline class="f" points="92.747 34.743 92.747 47.704 71.889 47.704"></polyline>
    <polyline class="f" points="172.325 98.419 160.964 98.419 160.964 86.809"></polyline>
    <line class="f" x1="180.517" y1="106.302" x2="180.517" y2="117.147"></line>
    <polyline class="f" points="135.228 71.24 128.724 71.24 128.724 102.139 128.724 117.062 128.724 131.792"></polyline>
    <path class="d" d="M59.026,160.33s-2.545,15.449-8.392,16.309"></path>
    <path class="d" d="M138.66,160.3s2.64,14.849,9.322,16.288h0"></path>
    <path class="d" d="M94.642,71.236a10.751,10.751,0,0,0-.835-.916c-2.089-2.018-2.064-3.811-1.053-6.117"></path>
    <path class="d"
      d="M94.645,71.24l0,0c-.144-.122-2.306-3.534-4.777-.916-1.649,1.748-3.773,5.433-3.773,7.244,0,0,.007-.294.018-.8.074-2.654-.456-7.729.189-10.54,1.32-5.742,8.448-10.648,14.738-10.648s13.5,4.2,15.351,11.669-.035,11.509-.035,11.509c-1.73.789-2.878,4.608-3.959,3.962s.288-2.379,0-5.836-2.45-5.89-5.331-6.339-6.342,4.106-8.357,4.32c-1.723.186-2.555-1.782-4.061-3.618">
    </path>
    <path class="d"
      d="M95.965,87.971a2.583,2.583,0,0,0-.8,1.442c-.1.828.976,1,1.239,1.794a1.885,1.885,0,0,0,3.11.428c1.095-1.327,1.442-.7,1.713-1.5a1.948,1.948,0,0,0-.337-1.594">
    </path>
    <path class="d"
      d="M89.051,79.568a2.965,2.965,0,0,1,2.38-1.133,10.126,10.126,0,0,1,4.875,2.776,2.632,2.632,0,0,1,.68,2.72"></path>
    <path class="d" d="M100.514,82.345s4.474-1.664,5.562-1.92,2.942-.639,3.261.449"></path>
    <path class="d" d="M93.084,94.383a35.491,35.491,0,0,1,4.583,0c1.871.175,3.833.354,4.9.979"></path>
    <path class="d" d="M111.52,90.378c.158-.417.291-.839.411-1.27"></path>
    <path class="d" d="M110.028,93.225a13.548,13.548,0,0,0,1.488-2.847"></path>
    <path class="d"
      d="M88.286,91.8c.828,1.927,1.649,3.668,2,4.51.776,1.846,2.867,4.422,4.756,5.11a8.442,8.442,0,0,0,6.226.095,11.67,11.67,0,0,0,4-2.766,39.628,39.628,0,0,0,4.752-5.524">
    </path>
    <path class="d" d="M86.415,86.788A42.934,42.934,0,0,0,88.286,91.8"></path>
    <path class="d" d="M86.092,77.564a45.63,45.63,0,0,0,0,7.757,10.6,10.6,0,0,0,.32,1.463"></path>
    <path class="d"
      d="M116.353,78.751s1.281-.292,1.87,1.4-2.179,6.4-3.829,8.342c-1.589,1.874-2.786,1.888-2.874,1.888h0"></path>
    <path class="d" d="M114.91,81.934c.323-.688,1.474-1.846,1.948-.828.386.832-1.937,5.429-3.7,6.535"></path>
    <path class="d" d="M86.092,76.761s-.828-1.688-2.239.21,1.425,8.855,2.559,9.813l0,0"></path>
    <polyline class="d" points="88.286 91.8 88.286 91.803 88.086 94.313 87.601 100.434"></polyline>
    <polyline class="d" points="110.028 93.225 110.028 93.228 110.028 95.362 110.028 98.068 110.028 100.434"></polyline>
    <path class="d" d="M101.272,101.518s7.546-1.569,8.756-3.45"></path>
    <path class="d" d="M82.716,96.215c.807,4.106,7.444,9.648,12.968,10.024A21.844,21.844,0,0,0,114.91,97.2"></path>
    <line class="d" x1="5.475" y1="174.214" x2="28.937" y2="174.214"></line>
    <line class="d" x1="166.92" y1="174.214" x2="190.382" y2="174.214"></line>
    <line class="g" x1="56.751" y1="46.43" x2="30.366" y2="72.672"></line>
    <path class="h" d="M91.023,82.527s-.108,2.029,2.517,2.236A3.006,3.006,0,0,0,96,83.57l-2.067-.106Z"></path>
    <path class="d" d="M91.023,82.527s1.517.576,2.584.955a3.653,3.653,0,0,0,2.042.088"></path>
    <path class="c"
      d="M92.427,84.082a1.115,1.115,0,0,1,2.2.165c-.038.519-.537.554-1.144.509S92.389,84.605,92.427,84.082Z"></path>
    <path class="h" d="M106.649,84.307s-.215,2.021-2.836,1.811a3.02,3.02,0,0,1-2.246-1.513l2.063.168Z"></path>
    <path class="d" d="M106.649,84.307s-1.59.329-2.7.533a3.654,3.654,0,0,1-2.033-.235"></path>
    <path class="c"
      d="M105.017,85.623a1.114,1.114,0,0,0-2.194-.186c-.042.519.442.631,1.049.684S104.971,86.142,105.017,85.623Z">
    </path>
  </g>
</svg>