<svg id="visual" viewBox="0 0 540 960" width="540" height="960" xmlns="http://www.w3.org/2000/svg" xmlns:xlink="http://www.w3.org/1999/xlink" version="1.1"><rect x="0" y="0" width="540" height="960" fill="#219f94"></rect><defs><linearGradient id="grad1_0" x1="0%" y1="100%" x2="100%" y2="0%"><stop offset="30%" stop-color="#c1deae" stop-opacity="1"></stop><stop offset="70%" stop-color="#c1deae" stop-opacity="1"></stop></linearGradient></defs><defs><linearGradient id="grad1_1" x1="0%" y1="100%" x2="100%" y2="0%"><stop offset="30%" stop-color="#c1deae" stop-opacity="1"></stop><stop offset="70%" stop-color="#abd4a6" stop-opacity="1"></stop></linearGradient></defs><defs><linearGradient id="grad1_2" x1="0%" y1="100%" x2="100%" y2="0%"><stop offset="30%" stop-color="#94caa0" stop-opacity="1"></stop><stop offset="70%" stop-color="#abd4a6" stop-opacity="1"></stop></linearGradient></defs><defs><linearGradient id="grad1_3" x1="0%" y1="100%" x2="100%" y2="0%"><stop offset="30%" stop-color="#94caa0" stop-opacity="1"></stop><stop offset="70%" stop-color="#7cbf9c" stop-opacity="1"></stop></linearGradient></defs><defs><linearGradient id="grad1_4" x1="0%" y1="100%" x2="100%" y2="0%"><stop offset="30%" stop-color="#63b598" stop-opacity="1"></stop><stop offset="70%" stop-color="#7cbf9c" stop-opacity="1"></stop></linearGradient></defs><defs><linearGradient id="grad1_5" x1="0%" y1="100%" x2="100%" y2="0%"><stop offset="30%" stop-color="#63b598" stop-opacity="1"></stop><stop offset="70%" stop-color="#47aa96" stop-opacity="1"></stop></linearGradient></defs><defs><linearGradient id="grad1_6" x1="0%" y1="100%" x2="100%" y2="0%"><stop offset="30%" stop-color="#219f94" stop-opacity="1"></stop><stop offset="70%" stop-color="#47aa96" stop-opacity="1"></stop></linearGradient></defs><defs><linearGradient id="grad2_0" x1="0%" y1="100%" x2="100%" y2="0%"><stop offset="30%" stop-color="#c1deae" stop-opacity="1"></stop><stop offset="70%" stop-color="#c1deae" stop-opacity="1"></stop></linearGradient></defs><defs><linearGradient id="grad2_1" x1="0%" y1="100%" x2="100%" y2="0%"><stop offset="30%" stop-color="#abd4a6" stop-opacity="1"></stop><stop offset="70%" stop-color="#c1deae" stop-opacity="1"></stop></linearGradient></defs><defs><linearGradient id="grad2_2" x1="0%" y1="100%" x2="100%" y2="0%"><stop offset="30%" stop-color="#abd4a6" stop-opacity="1"></stop><stop offset="70%" stop-color="#94caa0" stop-opacity="1"></stop></linearGradient></defs><defs><linearGradient id="grad2_3" x1="0%" y1="100%" x2="100%" y2="0%"><stop offset="30%" stop-color="#7cbf9c" stop-opacity="1"></stop><stop offset="70%" stop-color="#94caa0" stop-opacity="1"></stop></linearGradient></defs><defs><linearGradient id="grad2_4" x1="0%" y1="100%" x2="100%" y2="0%"><stop offset="30%" stop-color="#7cbf9c" stop-opacity="1"></stop><stop offset="70%" stop-color="#63b598" stop-opacity="1"></stop></linearGradient></defs><defs><linearGradient id="grad2_5" x1="0%" y1="100%" x2="100%" y2="0%"><stop offset="30%" stop-color="#47aa96" stop-opacity="1"></stop><stop offset="70%" stop-color="#63b598" stop-opacity="1"></stop></linearGradient></defs><defs><linearGradient id="grad2_6" x1="0%" y1="100%" x2="100%" y2="0%"><stop offset="30%" stop-color="#47aa96" stop-opacity="1"></stop><stop offset="70%" stop-color="#219f94" stop-opacity="1"></stop></linearGradient></defs><g transform="translate(540, 960)"><path d="M-395 0C-366.3 -43.7 -337.5 -87.5 -322.4 -133.6C-307.3 -179.7 -305.9 -228.1 -285.7 -285.7C-265.4 -343.2 -226.4 -409.8 -175.7 -424.1C-124.9 -438.3 -62.5 -400.1 0 -362L0 0Z" fill="#36a595"></path><path d="M-338.6 0C-313.9 -37.5 -289.3 -75 -276.4 -114.5C-263.4 -154 -262.2 -195.5 -244.9 -244.9C-227.5 -294.2 -194.1 -351.3 -150.6 -363.5C-107.1 -375.7 -53.5 -343 0 -310.3L0 0Z" fill="#55af97"></path><path d="M-282.1 0C-261.6 -31.2 -241.1 -62.5 -230.3 -95.4C-219.5 -128.3 -218.5 -162.9 -204.1 -204.1C-189.6 -245.2 -161.7 -292.7 -125.5 -302.9C-89.2 -313.1 -44.6 -285.8 0 -258.6L0 0Z" fill="#6fba9a"></path><path d="M-225.7 0C-209.3 -25 -192.9 -50 -184.2 -76.3C-175.6 -102.7 -174.8 -130.4 -163.2 -163.2C-151.7 -196.1 -129.4 -234.2 -100.4 -242.3C-71.4 -250.5 -35.7 -228.7 0 -206.9L0 0Z" fill="#88c59e"></path><path d="M-169.3 0C-157 -18.7 -144.7 -37.5 -138.2 -57.2C-131.7 -77 -131.1 -97.8 -122.4 -122.4C-113.8 -147.1 -97 -175.6 -75.3 -181.7C-53.5 -187.8 -26.8 -171.5 0 -155.1L0 0Z" fill="#9fcfa3"></path><path d="M-112.9 0C-104.6 -12.5 -96.4 -25 -92.1 -38.2C-87.8 -51.3 -87.4 -65.2 -81.6 -81.6C-75.8 -98.1 -64.7 -117.1 -50.2 -121.2C-35.7 -125.2 -17.8 -114.3 0 -103.4L0 0Z" fill="#b6d9aa"></path><path d="M-56.4 0C-52.3 -6.2 -48.2 -12.5 -46.1 -19.1C-43.9 -25.7 -43.7 -32.6 -40.8 -40.8C-37.9 -49 -32.3 -58.5 -25.1 -60.6C-17.8 -62.6 -8.9 -57.2 0 -51.7L0 0Z" fill="#c1deae"></path></g><g transform="translate(0, 0)"><path d="M444 0C439.7 58.2 435.3 116.5 417.6 173C399.8 229.5 368.7 284.2 324.6 324.6C280.5 364.9 223.5 390.7 167.2 403.7C111 416.7 55.5 416.9 0 417L0 0Z" fill="#36a595"></path><path d="M380.6 0C376.9 49.9 373.2 99.8 357.9 148.3C342.7 196.7 316 243.6 278.2 278.2C240.4 312.8 191.6 334.9 143.3 346.1C95.1 357.2 47.6 357.3 0 357.4L0 0Z" fill="#55af97"></path><path d="M317.1 0C314.1 41.6 311 83.2 298.3 123.6C285.6 163.9 263.3 203 231.8 231.8C200.3 260.6 159.6 279.1 119.5 288.4C79.3 297.7 39.6 297.8 0 297.9L0 0Z" fill="#6fba9a"></path><path d="M253.7 0C251.2 33.3 248.8 66.6 238.6 98.8C228.5 131.1 210.7 162.4 185.5 185.5C160.3 208.5 127.7 223.3 95.6 230.7C63.4 238.1 31.7 238.2 0 238.3L0 0Z" fill="#88c59e"></path><path d="M190.3 0C188.4 25 186.6 49.9 179 74.1C171.4 98.3 158 121.8 139.1 139.1C120.2 156.4 95.8 167.5 71.7 173C47.6 178.6 23.8 178.7 0 178.7L0 0Z" fill="#9fcfa3"></path><path d="M126.9 0C125.6 16.6 124.4 33.3 119.3 49.4C114.2 65.6 105.3 81.2 92.7 92.7C80.1 104.3 63.9 111.6 47.8 115.4C31.7 119.1 15.9 119.1 0 119.1L0 0Z" fill="#b6d9aa"></path><path d="M63.4 0C62.8 8.3 62.2 16.6 59.7 24.7C57.1 32.8 52.7 40.6 46.4 46.4C40.1 52.1 31.9 55.8 23.9 57.7C15.9 59.5 7.9 59.6 0 59.6L0 0Z" fill="#c1deae"></path></g></svg>