<svg id="visual" viewBox="0 0 540 960" width="540" height="960" xmlns="http://www.w3.org/2000/svg" xmlns:xlink="http://www.w3.org/1999/xlink" version="1.1"><rect x="0" y="0" width="540" height="960" fill="#e8e8a6"></rect><defs><linearGradient id="grad1_0" x1="0%" y1="0%" x2="100%" y2="100%"><stop offset="30%" stop-color="#9ed0cc" stop-opacity="1"></stop><stop offset="70%" stop-color="#9ed0cc" stop-opacity="1"></stop></linearGradient></defs><defs><linearGradient id="grad1_1" x1="0%" y1="0%" x2="100%" y2="100%"><stop offset="30%" stop-color="#9ed0cc" stop-opacity="1"></stop><stop offset="70%" stop-color="#a2d7c8" stop-opacity="1"></stop></linearGradient></defs><defs><linearGradient id="grad1_2" x1="0%" y1="0%" x2="100%" y2="100%"><stop offset="30%" stop-color="#abdec0" stop-opacity="1"></stop><stop offset="70%" stop-color="#a2d7c8" stop-opacity="1"></stop></linearGradient></defs><defs><linearGradient id="grad1_3" x1="0%" y1="0%" x2="100%" y2="100%"><stop offset="30%" stop-color="#abdec0" stop-opacity="1"></stop><stop offset="70%" stop-color="#bbe3b7" stop-opacity="1"></stop></linearGradient></defs><defs><linearGradient id="grad1_4" x1="0%" y1="0%" x2="100%" y2="100%"><stop offset="30%" stop-color="#d0e6ad" stop-opacity="1"></stop><stop offset="70%" stop-color="#bbe3b7" stop-opacity="1"></stop></linearGradient></defs><defs><linearGradient id="grad1_5" x1="0%" y1="0%" x2="100%" y2="100%"><stop offset="30%" stop-color="#d0e6ad" stop-opacity="1"></stop><stop offset="70%" stop-color="#e8e8a6" stop-opacity="1"></stop></linearGradient></defs><defs><linearGradient id="grad2_0" x1="0%" y1="0%" x2="100%" y2="100%"><stop offset="30%" stop-color="#9ed0cc" stop-opacity="1"></stop><stop offset="70%" stop-color="#9ed0cc" stop-opacity="1"></stop></linearGradient></defs><defs><linearGradient id="grad2_1" x1="0%" y1="0%" x2="100%" y2="100%"><stop offset="30%" stop-color="#a2d7c8" stop-opacity="1"></stop><stop offset="70%" stop-color="#9ed0cc" stop-opacity="1"></stop></linearGradient></defs><defs><linearGradient id="grad2_2" x1="0%" y1="0%" x2="100%" y2="100%"><stop offset="30%" stop-color="#a2d7c8" stop-opacity="1"></stop><stop offset="70%" stop-color="#abdec0" stop-opacity="1"></stop></linearGradient></defs><defs><linearGradient id="grad2_3" x1="0%" y1="0%" x2="100%" y2="100%"><stop offset="30%" stop-color="#bbe3b7" stop-opacity="1"></stop><stop offset="70%" stop-color="#abdec0" stop-opacity="1"></stop></linearGradient></defs><defs><linearGradient id="grad2_4" x1="0%" y1="0%" x2="100%" y2="100%"><stop offset="30%" stop-color="#bbe3b7" stop-opacity="1"></stop><stop offset="70%" stop-color="#d0e6ad" stop-opacity="1"></stop></linearGradient></defs><defs><linearGradient id="grad2_5" x1="0%" y1="0%" x2="100%" y2="100%"><stop offset="30%" stop-color="#e8e8a6" stop-opacity="1"></stop><stop offset="70%" stop-color="#d0e6ad" stop-opacity="1"></stop></linearGradient></defs><g transform="translate(540, 0)"><path d="M0 181C-33.2 204.9 -66.4 228.9 -93 224.5C-119.6 220.2 -139.5 187.5 -159.8 159.8C-180.1 132.1 -200.8 109.2 -201.4 83.4C-202 57.6 -182.5 28.8 -163 0L0 0Z" fill="#dbe7a9"></path><path d="M0 150.8C-27.7 170.8 -55.4 190.7 -77.5 187.1C-99.6 183.5 -116.2 156.3 -133.2 133.2C-150.1 110.1 -167.3 91 -167.8 69.5C-168.3 48 -152.1 24 -135.8 0L0 0Z" fill="#c5e5b2"></path><path d="M0 120.7C-22.1 136.6 -44.3 152.6 -62 149.7C-79.7 146.8 -93 125 -106.5 106.5C-120.1 88.1 -133.9 72.8 -134.3 55.6C-134.7 38.4 -121.7 19.2 -108.7 0L0 0Z" fill="#b2e0bc"></path><path d="M0 90.5C-16.6 102.5 -33.2 114.4 -46.5 112.3C-59.8 110.1 -69.7 93.8 -79.9 79.9C-90.1 66 -100.4 54.6 -100.7 41.7C-101 28.8 -91.3 14.4 -81.5 0L0 0Z" fill="#a6dbc4"></path><path d="M0 60.3C-11.1 68.3 -22.1 76.3 -31 74.8C-39.9 73.4 -46.5 62.5 -53.3 53.3C-60 44 -66.9 36.4 -67.1 27.8C-67.3 19.2 -60.8 9.6 -54.3 0L0 0Z" fill="#9fd4ca"></path><path d="M0 30.2C-5.5 34.2 -11.1 38.1 -15.5 37.4C-19.9 36.7 -23.2 31.3 -26.6 26.6C-30 22 -33.5 18.2 -33.6 13.9C-33.7 9.6 -30.4 4.8 -27.2 0L0 0Z" fill="#9ed0cc"></path></g><g transform="translate(0, 960)"><path d="M0 -217C16.1 -180.9 32.2 -144.9 57 -137.7C81.8 -130.4 115.3 -152 149.9 -149.9C184.5 -147.8 220.3 -121.9 224.5 -93C228.7 -64.1 201.4 -32 174 0L0 0Z" fill="#dbe7a9"></path><path d="M0 -180.8C13.4 -150.8 26.9 -120.7 47.5 -114.7C68.2 -108.7 96.1 -126.7 124.9 -124.9C153.8 -123.2 183.6 -101.6 187.1 -77.5C190.6 -53.4 167.8 -26.7 145 0L0 0Z" fill="#c5e5b2"></path><path d="M0 -144.7C10.7 -120.6 21.5 -96.6 38 -91.8C54.5 -87 76.9 -101.4 99.9 -99.9C123 -98.5 146.9 -81.3 149.7 -62C152.5 -42.7 134.2 -21.4 116 0L0 0Z" fill="#b2e0bc"></path><path d="M0 -108.5C8.1 -90.5 16.1 -72.4 28.5 -68.8C40.9 -65.2 57.6 -76 75 -75C92.3 -73.9 110.1 -61 112.3 -46.5C114.4 -32 100.7 -16 87 0L0 0Z" fill="#a6dbc4"></path><path d="M0 -72.3C5.4 -60.3 10.7 -48.3 19 -45.9C27.3 -43.5 38.4 -50.7 50 -50C61.5 -49.3 73.4 -40.6 74.8 -31C76.2 -21.4 67.1 -10.7 58 0L0 0Z" fill="#9fd4ca"></path><path d="M0 -36.2C2.7 -30.2 5.4 -24.1 9.5 -22.9C13.6 -21.7 19.2 -25.3 25 -25C30.8 -24.6 36.7 -20.3 37.4 -15.5C38.1 -10.7 33.6 -5.3 29 0L0 0Z" fill="#9ed0cc"></path></g></svg>