<svg id="visual" viewBox="0 0 960 540" width="960" height="540" xmlns="http://www.w3.org/2000/svg" xmlns:xlink="http://www.w3.org/1999/xlink" version="1.1"><rect x="0" y="0" width="960" height="540" fill="#ffffff"></rect><g transform="translate(521.266765012597 270.34851476944857)"><path d="M74.7 -137.6C96.1 -102.5 112.2 -80.6 130.2 -55.3C148.2 -30 168.1 -1.5 162.7 22.1C157.3 45.7 126.5 64.3 108.9 106.6C91.3 149 86.9 215.1 58 245.5C29 276 -24.5 270.9 -78.1 258.5C-131.6 246.2 -185.2 226.6 -215.8 188.5C-246.3 150.5 -253.8 94 -238.3 48.5C-222.7 2.9 -184.1 -31.8 -171 -85.4C-157.8 -139 -170.2 -211.4 -145.9 -245.2C-121.6 -278.9 -60.8 -274 -17.1 -247.4C26.7 -220.8 53.3 -172.7 74.7 -137.6" fill="#f2f5c8"></path></g></svg>