<svg id="visual" viewBox="0 0 540 960" width="540" height="960" xmlns="http://www.w3.org/2000/svg" xmlns:xlink="http://www.w3.org/1999/xlink" version="1.1"><rect x="0" y="0" width="540" height="960" fill="#e8e8a6"></rect><defs><linearGradient id="grad1_0" x1="0%" y1="0%" x2="100%" y2="100%"><stop offset="30%" stop-color="#219f94" stop-opacity="1"></stop><stop offset="70%" stop-color="#219f94" stop-opacity="1"></stop></linearGradient></defs><defs><linearGradient id="grad1_1" x1="0%" y1="0%" x2="100%" y2="100%"><stop offset="30%" stop-color="#219f94" stop-opacity="1"></stop><stop offset="70%" stop-color="#52af93" stop-opacity="1"></stop></linearGradient></defs><defs><linearGradient id="grad1_2" x1="0%" y1="0%" x2="100%" y2="100%"><stop offset="30%" stop-color="#79bf94" stop-opacity="1"></stop><stop offset="70%" stop-color="#52af93" stop-opacity="1"></stop></linearGradient></defs><defs><linearGradient id="grad1_3" x1="0%" y1="0%" x2="100%" y2="100%"><stop offset="30%" stop-color="#79bf94" stop-opacity="1"></stop><stop offset="70%" stop-color="#9ecd96" stop-opacity="1"></stop></linearGradient></defs><defs><linearGradient id="grad1_4" x1="0%" y1="0%" x2="100%" y2="100%"><stop offset="30%" stop-color="#c3db9c" stop-opacity="1"></stop><stop offset="70%" stop-color="#9ecd96" stop-opacity="1"></stop></linearGradient></defs><defs><linearGradient id="grad1_5" x1="0%" y1="0%" x2="100%" y2="100%"><stop offset="30%" stop-color="#c3db9c" stop-opacity="1"></stop><stop offset="70%" stop-color="#e8e8a6" stop-opacity="1"></stop></linearGradient></defs><defs><linearGradient id="grad2_0" x1="0%" y1="0%" x2="100%" y2="100%"><stop offset="30%" stop-color="#219f94" stop-opacity="1"></stop><stop offset="70%" stop-color="#219f94" stop-opacity="1"></stop></linearGradient></defs><defs><linearGradient id="grad2_1" x1="0%" y1="0%" x2="100%" y2="100%"><stop offset="30%" stop-color="#52af93" stop-opacity="1"></stop><stop offset="70%" stop-color="#219f94" stop-opacity="1"></stop></linearGradient></defs><defs><linearGradient id="grad2_2" x1="0%" y1="0%" x2="100%" y2="100%"><stop offset="30%" stop-color="#52af93" stop-opacity="1"></stop><stop offset="70%" stop-color="#79bf94" stop-opacity="1"></stop></linearGradient></defs><defs><linearGradient id="grad2_3" x1="0%" y1="0%" x2="100%" y2="100%"><stop offset="30%" stop-color="#9ecd96" stop-opacity="1"></stop><stop offset="70%" stop-color="#79bf94" stop-opacity="1"></stop></linearGradient></defs><defs><linearGradient id="grad2_4" x1="0%" y1="0%" x2="100%" y2="100%"><stop offset="30%" stop-color="#9ecd96" stop-opacity="1"></stop><stop offset="70%" stop-color="#c3db9c" stop-opacity="1"></stop></linearGradient></defs><defs><linearGradient id="grad2_5" x1="0%" y1="0%" x2="100%" y2="100%"><stop offset="30%" stop-color="#e8e8a6" stop-opacity="1"></stop><stop offset="70%" stop-color="#c3db9c" stop-opacity="1"></stop></linearGradient></defs><g transform="translate(540, 0)"><path d="M0 156C-31.1 179.2 -62.3 202.3 -78.8 190.3C-95.4 178.3 -97.3 131.2 -106.1 106.1C-114.8 81 -130.3 77.9 -154.3 63.9C-178.2 49.9 -210.6 25 -243 0L0 0Z" fill="#d6e2a0"></path><path d="M0 130C-26 149.3 -51.9 168.6 -65.7 158.6C-79.5 148.6 -81.1 109.3 -88.4 88.4C-95.7 67.5 -108.6 64.9 -128.6 53.3C-148.5 41.6 -175.5 20.8 -202.5 0L0 0Z" fill="#b1d498"></path><path d="M0 104C-20.8 119.4 -41.5 134.9 -52.6 126.9C-63.6 118.9 -64.9 87.4 -70.7 70.7C-76.5 54 -86.9 51.9 -102.9 42.6C-118.8 33.3 -140.4 16.6 -162 0L0 0Z" fill="#8cc695"></path><path d="M0 78C-15.6 89.6 -31.1 101.2 -39.4 95.2C-47.7 89.2 -48.7 65.6 -53 53C-57.4 40.5 -65.2 39 -77.1 32C-89.1 25 -105.3 12.5 -121.5 0L0 0Z" fill="#66b793"></path><path d="M0 52C-10.4 59.7 -20.8 67.4 -26.3 63.4C-31.8 59.4 -32.4 43.7 -35.4 35.4C-38.3 27 -43.4 26 -51.4 21.3C-59.4 16.6 -70.2 8.3 -81 0L0 0Z" fill="#3ca794"></path><path d="M0 26C-5.2 29.9 -10.4 33.7 -13.1 31.7C-15.9 29.7 -16.2 21.9 -17.7 17.7C-19.1 13.5 -21.7 13 -25.7 10.7C-29.7 8.3 -35.1 4.2 -40.5 0L0 0Z" fill="#219f94"></path></g><g transform="translate(0, 960)"><path d="M0 -230C22.5 -209.5 45.1 -188.9 75.8 -182.9C106.5 -176.9 145.3 -185.5 171.8 -171.8C198.3 -158.2 212.5 -122.3 217.1 -89.9C221.7 -57.6 216.9 -28.8 212 0L0 0Z" fill="#d6e2a0"></path><path d="M0 -191.7C18.8 -174.5 37.6 -157.4 63.1 -152.4C88.7 -147.4 121.1 -154.6 143.2 -143.2C165.3 -131.8 177.1 -101.9 180.9 -74.9C184.8 -48 180.7 -24 176.7 0L0 0Z" fill="#b1d498"></path><path d="M0 -153.3C15 -139.6 30 -125.9 50.5 -122C71 -118 96.9 -123.7 114.6 -114.6C132.2 -105.4 141.7 -81.5 144.7 -60C147.8 -38.4 144.6 -19.2 141.3 0L0 0Z" fill="#8cc695"></path><path d="M0 -115C11.3 -104.7 22.5 -94.5 37.9 -91.5C53.2 -88.5 72.7 -92.7 85.9 -85.9C99.2 -79.1 106.2 -61.1 108.6 -45C110.9 -28.8 108.4 -14.4 106 0L0 0Z" fill="#66b793"></path><path d="M0 -76.7C7.5 -69.8 15 -63 25.3 -61C35.5 -59 48.4 -61.8 57.3 -57.3C66.1 -52.7 70.8 -40.8 72.4 -30C73.9 -19.2 72.3 -9.6 70.7 0L0 0Z" fill="#3ca794"></path><path d="M0 -38.3C3.8 -34.9 7.5 -31.5 12.6 -30.5C17.7 -29.5 24.2 -30.9 28.6 -28.6C33.1 -26.4 35.4 -20.4 36.2 -15C37 -9.6 36.1 -4.8 35.3 0L0 0Z" fill="#219f94"></path></g></svg>