<svg id="visual" viewBox="0 0 960 540" width="960" height="540" xmlns="http://www.w3.org/2000/svg" xmlns:xlink="http://www.w3.org/1999/xlink" version="1.1"><rect x="0" y="0" width="960" height="540" fill="#ffffff"></rect><g transform="translate(483.12093435757606 253.67463338786416)"><path d="M112 -157.8C146.1 -152.3 175.4 -122.9 193.7 -87.2C212 -51.4 219.3 -9.4 227.7 43C236.1 95.4 245.6 158.2 218.4 188.9C191.3 219.6 127.5 218.2 77.6 206.5C27.7 194.8 -8.3 172.7 -49.2 162.9C-90.2 153 -136.2 155.4 -152.7 133.8C-169.3 112.1 -156.4 66.4 -175.2 17.6C-193.9 -31.1 -244.3 -82.9 -242.6 -120.8C-240.8 -158.7 -186.9 -182.8 -137.8 -181.5C-88.7 -180.2 -44.3 -153.4 -2.7 -149.2C38.9 -145 77.9 -163.3 112 -157.8" fill="#f2f5c8"></path></g></svg>